<svg xmlns="http://www.w3.org/2000/svg" xmlns:xlink="http://www.w3.org/1999/xlink" width="550" height="1125" version="1"><path style="marker:none" d="M16.153 26.354h515.875v1082.174H16.153V26.354zm117.824-.067V1108.38m120-1082.093V1108.38m116-1082.093V1108.38M16.153 64.574h516.212M16.153 94.5h516.212M16.153 632.033h515.146m-515.146-27.2h515.146m-515.146-27.2h515.146m-515.146-27.2h515.146m-515.146-27.2h515.146m-515.146-27.2h515.146m-515.146-27.2h515.146m-515.146-27.2h515.146M16.153 413.497h515.146M16.153 385.36h515.146m-515.146-27.2h515.146m-515.146-27.2h515.146m-515.146-27.2h515.146M16.153 275.624h515.146m-515.146-27.2h515.146M16.153 220.288h515.146M16.153 194.024h515.146M16.153 164.952h515.146M16.153 122.5h516.212M16.153 1079.097h515.146m-515.146-27.2h515.146M16.153 1023.76h515.146m-515.146-27.2h515.146m-515.146-27.2h515.146M16.153 941.224h515.146m-515.146-27.2h515.146m-515.146-27.2h515.146M16.153 858.688h515.146M16.153 832.424h515.146M16.153 803.352h515.146M16.153 778.024h515.146M16.153 749.888h515.146m-515.146-27.2h515.146M16.153 693.615h515.146" overflow="visible" color="#000" fill="none" stroke="#000" stroke-linejoin="round"/><text style="text-align:start;line-height:100%" x="28.157" y="51.331" font-size="22" font-weight="400" font-family="Times New Roman"><tspan x="28.157" y="51.331" font-size="16" font-style="italic">CHARACTER</tspan></text><text style="text-align:start;line-height:100%" x="192.077" y="43.331" font-size="22" font-weight="400" font-family="Times New Roman"><tspan x="192.077" y="43.331" style="text-align:center" font-size="16" font-style="italic" text-anchor="middle">MORSE</tspan><tspan x="192.077" y="59.331" style="text-align:center" font-size="16" font-style="italic" text-anchor="middle">CODE</tspan></text><text style="text-align:start;line-height:100%" x="263.006" y="51.331" font-size="22" font-weight="400" font-family="Times New Roman"><tspan x="263.006" y="51.331" font-size="16" font-style="italic">TELEPHONY</tspan></text><text style="text-align:start;line-height:100%" x="449.832" y="41.741" font-size="22" font-weight="400" font-family="Times New Roman"><tspan x="449.832" y="41.741" style="text-align:center" font-size="16" font-style="italic" text-anchor="middle">PHONIC</tspan><tspan x="449.832" y="57.741" style="text-align:center" font-size="16" font-style="italic" text-anchor="middle">(PRONUNCIATION)</tspan></text><g transform="translate(-.661 .166)" fill-rule="evenodd"><path id="b" d="M148.574 80.838a3.297 3.297 0 1 1-6.593 0 3.297 3.297 0 1 1 6.593 0z" transform="translate(-2.072 -.083)"/><path style="marker:none" d="M152.968 80.755h12.804" id="a" overflow="visible" color="#000" fill="none" stroke="#000" stroke-width="2" stroke-linejoin="round"/></g><text y="86.338" x="68.133" style="text-align:start;line-height:100%" font-size="22" font-weight="400" font-family="Times New Roman"><tspan y="86.338" x="68.133" font-size="16">A</tspan></text><text y="86.401" x="256.942" style="text-align:start;line-height:100%" font-size="22" font-weight="400" font-family="Times New Roman"><tspan y="86.401" x="256.942" font-size="16">Alfa</tspan></text><text y="84.764" x="375.831" style="text-align:start;line-height:100%" font-size="22" font-weight="400" font-family="Times New Roman"><tspan y="84.764" x="375.831" font-size="16">(AL-FAH)</tspan></text><text y="113.593" x="68.851" style="text-align:start;line-height:100%" font-size="22" font-weight="400" font-family="Times New Roman" transform="translate(0 .18)"><tspan y="113.593" x="68.851" font-size="16">B</tspan></text><g transform="translate(-1.399 1.153)"><use xlink:href="#a" transform="translate(-11.322 26.569)" width="550" height="1125"/><use xlink:href="#b" transform="translate(21.066 26.569)" width="550" height="1125"/><use xlink:href="#b" transform="translate(33.183 26.569)" width="550" height="1125"/><use xlink:href="#b" transform="translate(45.3 26.569)" width="550" height="1125"/></g><text y="113.484" x="256.801" style="text-align:start;line-height:100%" font-size="22" font-weight="400" font-family="Times New Roman" transform="translate(0 .18)"><tspan y="113.484" x="256.801" font-size="16">Bravo</tspan></text><text y="112.14" x="375.831" style="text-align:start;line-height:100%" font-size="22" font-weight="400" font-family="Times New Roman" transform="translate(0 .18)"><tspan y="112.14" x="375.831" font-size="16">(BRAH-VOH)</tspan></text><text y="138.387" x="68.535" style="text-align:start;line-height:100%" font-size="22" font-weight="400" font-family="Times New Roman" transform="translate(0 1.217)"><tspan y="138.387" x="68.535" font-size="16">C</tspan></text><g transform="translate(-1.482 -2.895)"><use xlink:href="#b" transform="translate(21.258 54.205)" width="550" height="1125"/><use xlink:href="#a" transform="translate(21.425 54.205)" width="550" height="1125"/><use xlink:href="#b" transform="translate(53.921 54.205)" width="550" height="1125"/><use xlink:href="#a" transform="translate(-11.239 54.205)" width="550" height="1125"/></g><text y="138.661" x="256.489" style="text-align:start;line-height:100%" font-size="22" font-weight="400" font-family="Times New Roman" transform="translate(0 1.217)"><tspan y="138.661" x="256.489" font-size="16">Charlie</tspan></text><text y="138.661" x="375.831" style="text-align:start;line-height:100%" font-size="22" font-weight="400" font-family="Times New Roman" transform="translate(0 1.217)"><tspan y="138.661" x="375.831" font-size="16">(CHAR-LEE) or</tspan><tspan y="154.661" x="375.831" font-size="16">(SHAR-LEE)</tspan></text><text y="188.922" x="68.273" style="text-align:start;line-height:100%" font-size="22" font-weight="400" font-family="Times New Roman" transform="translate(0 -4.034)"><tspan y="188.922" x="68.273" font-size="16">D</tspan></text><g transform="translate(-1.229 -3.415)"><use xlink:href="#b" transform="translate(21.081 102.251)" width="550" height="1125"/><use xlink:href="#a" transform="translate(-11.492 102.251)" width="550" height="1125"/><use xlink:href="#b" transform="translate(33.384 102.251)" width="550" height="1125"/></g><text y="189.07" x="260.088" style="text-align:start;line-height:100%" font-size="22" font-weight="400" font-family="Times New Roman" transform="translate(0 -4.034)"><tspan y="189.07" x="260.088" font-size="16">Delta</tspan></text><text y="187.469" x="375.831" style="marker:none;text-indent:0;text-align:start;line-height:100%;text-transform:none" overflow="visible" font-size="16" font-weight="400" color="#000" font-family="Times New Roman" transform="translate(0 -4.034)"><tspan y="187.469" x="375.831">(DELL-TAH)</tspan></text><g transform="translate(0 -2.712)"><text y="215.156" x="69.016" style="text-align:start;line-height:100%" font-size="22" font-weight="400" font-family="Times New Roman"><tspan y="215.156" x="69.016" font-size="16">E</tspan></text><use height="1125" width="550" transform="translate(-.661 129.104)" xlink:href="#b"/><text y="215.304" x="260.033" style="text-align:start;line-height:100%" font-size="22" font-weight="400" font-family="Times New Roman"><tspan y="215.304" x="260.033" font-size="16">Echo</tspan></text><text y="213.703" x="375.831" style="marker:none;text-indent:0;text-align:start;line-height:100%;text-transform:none" overflow="visible" font-size="16" font-weight="400" color="#000" font-family="Times New Roman"><tspan y="213.703" x="375.831">(ECK-OH)</tspan></text></g><text y="242.311" x="69.633" style="text-align:start;line-height:100%" font-size="22" font-weight="400" font-family="Times New Roman" transform="translate(0 -2.31)"><tspan y="242.311" x="69.633" font-size="16">F</tspan></text><g transform="translate(-.832 -2.433)"><use xlink:href="#a" transform="translate(12.555 156.382)" width="550" height="1125"/><use xlink:href="#b" transform="translate(.17 156.382)" width="550" height="1125"/><use xlink:href="#b" transform="translate(12.393 156.382)" width="550" height="1125"/><use xlink:href="#b" transform="translate(45.047 156.382)" width="550" height="1125"/></g><text y="242.201" x="260.103" style="text-align:start;line-height:100%" font-size="22" font-weight="400" font-family="Times New Roman" transform="translate(0 -2.31)"><tspan y="242.201" x="260.103" font-size="16">Foxtrot</tspan></text><text y="240.858" x="375.831" style="marker:none;text-indent:0;text-align:start;line-height:100%;text-transform:none" overflow="visible" font-size="16" font-weight="400" color="#000" font-family="Times New Roman" transform="translate(0 -2.31)"><tspan y="240.858" x="375.831">(FOKS-TROT)</tspan></text><text y="269.714" x="67.937" style="text-align:start;line-height:100%" font-size="22" font-weight="400" font-family="Times New Roman" transform="translate(0 -2.156)"><tspan y="269.714" x="67.937" font-size="16">G</tspan></text><g transform="translate(-.722 -2.132)"><use xlink:href="#a" transform="translate(8.846 183.637)" width="550" height="1125"/><use xlink:href="#a" transform="translate(-12 183.637)" width="550" height="1125"/><use xlink:href="#b" transform="translate(41.751 183.637)" width="550" height="1125"/></g><text y="269.851" x="259.799" style="text-align:start;line-height:100%" font-size="22" font-weight="400" font-family="Times New Roman" transform="translate(0 -2.156)"><tspan y="269.851" x="259.799" font-size="16">Golf</tspan></text><text y="268.261" x="375.831" style="marker:none;text-indent:0;text-align:start;line-height:100%;text-transform:none" overflow="visible" font-size="16" font-weight="400" color="#000" font-family="Times New Roman" transform="translate(0 -2.156)"><tspan y="268.261" x="375.831">(GOLF)</tspan></text><text y="296.597" x="68.133" style="text-align:start;line-height:100%" font-size="22" font-weight="400" font-family="Times New Roman" transform="translate(0 -1.483)"><tspan y="296.597" x="68.133" font-size="16">H</tspan></text><g transform="translate(-.578 -1.704)"><use xlink:href="#b" transform="translate(36.154 210.766)" width="550" height="1125"/><use xlink:href="#b" transform="translate(-.083 210.766)" width="550" height="1125"/><use xlink:href="#b" transform="translate(11.996 210.766)" width="550" height="1125"/><use xlink:href="#b" transform="translate(24.075 210.766)" width="550" height="1125"/></g><text y="296.746" x="260.088" style="text-align:start;line-height:100%" font-size="22" font-weight="400" font-family="Times New Roman" transform="translate(0 -1.483)"><tspan y="296.746" x="260.088" font-size="16">Hotel</tspan></text><text y="295.144" x="375.831" style="marker:none;text-indent:0;text-align:start;line-height:100%;text-transform:none" overflow="visible" font-size="16" font-weight="400" color="#000" font-family="Times New Roman" transform="translate(0 -1.483)"><tspan y="295.144" x="375.831">(HOH-TEL)</tspan></text><text y="324.159" x="71.215" style="text-align:start;line-height:100%" font-size="22" font-weight="400" font-family="Times New Roman" transform="translate(0 -1.488)"><tspan y="324.159" x="71.215" font-size="16">I</tspan></text><g transform="translate(-.578 -1.403)"><use xlink:href="#b" transform="translate(12.34 238.022)" width="550" height="1125"/><use xlink:href="#b" transform="translate(-.083 238.022)" width="550" height="1125"/></g><text y="324.308" x="259.963" style="text-align:start;line-height:100%" font-size="22" font-weight="400" font-family="Times New Roman" transform="translate(0 -1.488)"><tspan y="324.308" x="259.963" font-size="16">India</tspan></text><text y="322.706" x="375.831" style="marker:none;text-indent:0;text-align:start;line-height:100%;text-transform:none" overflow="visible" font-size="16" font-weight="400" color="#000" font-family="Times New Roman" transform="translate(0 -1.488)"><tspan y="322.706" x="375.831">(IN-DEE-AH)</tspan></text><text y="351.007" x="70.652" style="text-align:start;line-height:100%" font-size="22" font-weight="400" font-family="Times New Roman" transform="translate(0 -.9)"><tspan y="351.007" x="70.652" font-size="16">J</tspan></text><g transform="translate(-.578 -.848)"><use xlink:href="#a" transform="translate(.433 265.024)" width="550" height="1125"/><use xlink:href="#a" transform="translate(21.219 265.024)" width="550" height="1125"/><use xlink:href="#a" transform="translate(42.005 265.024)" width="550" height="1125"/><use xlink:href="#b" transform="translate(-.083 265.024)" width="550" height="1125"/></g><text y="351.265" x="260.033" style="text-align:start;line-height:100%" font-size="22" font-weight="400" font-family="Times New Roman" transform="translate(0 -.9)"><tspan y="351.265" x="260.033" font-size="16">Juliett</tspan></text><text y="349.675" x="375.831" style="marker:none;text-indent:0;text-align:start;line-height:100%;text-transform:none" overflow="visible" font-size="16" font-weight="400" color="#000" font-family="Times New Roman" transform="translate(0 -.9)"><tspan y="349.675" x="375.831">(JEW-LEE-ETT)</tspan></text><g><text y="378.202" x="67.906" style="text-align:start;line-height:100%" font-size="22" font-weight="400" font-family="Times New Roman" transform="translate(0 -.417)"><tspan y="378.202" x="67.906" font-size="16">K</tspan></text><g transform="translate(-1.339 -.674)"><use xlink:href="#a" transform="translate(21.468 292.407)" width="550" height="1125"/><use xlink:href="#b" transform="matrix(-1 0 0 1 307.618 292.407)" width="550" height="1125"/><use xlink:href="#a" transform="matrix(-1 0 0 1 307.358 292.407)" width="550" height="1125"/></g><text y="378.35" x="260.096" style="text-align:start;line-height:100%" font-size="22" font-weight="400" font-family="Times New Roman" transform="translate(0 -.417)"><tspan y="378.35" x="260.096" font-size="16">Kilo</tspan></text><text y="376.749" x="375.831" style="marker:none;text-indent:0;text-align:start;line-height:100%;text-transform:none" overflow="visible" font-size="16" font-weight="400" color="#000" font-family="Times New Roman" transform="translate(0 -.417)"><tspan y="376.749" x="375.831">(KEY-LOH)</tspan></text></g><g><text y="405.154" x="69.008" style="text-align:start;line-height:100%" font-size="22" font-weight="400" font-family="Times New Roman" transform="translate(0 .187)"><tspan y="405.154" x="69.008" font-size="16">L</tspan></text><g transform="translate(-1.282 .166)"><use xlink:href="#b" transform="translate(.621 319.124)" width="550" height="1125"/><use xlink:href="#a" transform="translate(.525 319.124)" width="550" height="1125"/><use xlink:href="#b" transform="translate(32.76 319.124)" width="550" height="1125"/><use xlink:href="#b" transform="translate(44.724 319.124)" width="550" height="1125"/></g><text y="405.338" x="260.041" style="text-align:start;line-height:100%" font-size="22" font-weight="400" font-family="Times New Roman" transform="translate(0 .187)"><tspan y="405.338" x="260.041" font-size="16">Lima</tspan></text><text y="403.701" x="375.831" style="marker:none;text-indent:0;text-align:start;line-height:100%;text-transform:none" overflow="visible" font-size="16" font-weight="400" color="#000" font-family="Times New Roman" transform="translate(0 .187)"><tspan y="403.701" x="375.831">(LEE-MAH)</tspan></text></g><g><text y="432.107" x="66.805" style="text-align:start;line-height:100%" font-size="22" font-weight="400" font-family="Times New Roman" transform="translate(0 .791)"><tspan y="432.107" x="66.805" font-size="16">M</tspan></text><g transform="translate(-1.51 -.167)"><use xlink:href="#a" transform="translate(-11.211 347.013)" width="550" height="1125"/><use xlink:href="#a" transform="translate(9.226 347.013)" width="550" height="1125"/></g><text y="432.255" x="260.096" style="text-align:start;line-height:100%" font-size="22" font-weight="400" font-family="Times New Roman" transform="translate(0 .791)"><tspan y="432.255" x="260.096" font-size="16">Mike</tspan></text><text y="430.654" x="375.831" style="marker:none;text-indent:0;text-align:start;line-height:100%;text-transform:none" overflow="visible" font-size="16" font-weight="400" color="#000" font-family="Times New Roman" transform="translate(0 .791)"><tspan y="430.654" x="375.831">(MIKE)</tspan></text></g><g><text y="458.513" x="68.324" style="text-align:start;line-height:100%" font-size="22" font-weight="400" font-family="Times New Roman" transform="translate(0 1.855)"><tspan y="458.513" x="68.324" font-size="16">N</tspan></text><g transform="translate(-1.51 .778)"><use xlink:href="#b" transform="translate(21.059 373.625)" width="550" height="1125"/><use xlink:href="#a" transform="translate(-11.211 373.625)" width="550" height="1125"/></g><text y="458.748" x="260.572" style="text-align:start;line-height:100%" font-size="22" font-weight="400" font-family="Times New Roman" transform="translate(0 1.855)"><tspan y="458.748" x="260.572" font-size="16">November</tspan></text><text y="457.146" x="375.831" style="marker:none;text-indent:0;text-align:start;line-height:100%;text-transform:none" overflow="visible" font-size="16" font-weight="400" color="#000" font-family="Times New Roman" transform="translate(0 1.855)"><tspan y="457.146" x="375.831">(NO-VEM-BER)</tspan></text></g><g><text y="485.868" x="68.133" style="text-align:start;line-height:100%" font-size="22" font-weight="400" font-family="Times New Roman" transform="translate(0 2.143)"><tspan y="485.868" x="68.133" font-size="16">O</tspan></text><g transform="translate(-.434 .445)"><use xlink:href="#a" transform="translate(-12.287 401.515)" width="550" height="1125"/><use xlink:href="#a" transform="translate(8.868 401.515)" width="550" height="1125"/><use xlink:href="#a" transform="translate(30.023 401.515)" width="550" height="1125"/></g><text y="485.868" x="259.799" style="text-align:start;line-height:100%" font-size="22" font-weight="400" font-family="Times New Roman" transform="translate(0 2.143)"><tspan y="485.868" x="259.799" font-size="16">Oscar</tspan></text><text y="484.415" x="375.831" style="marker:none;text-indent:0;text-align:start;line-height:100%;text-transform:none" overflow="visible" font-size="16" font-weight="400" color="#000" font-family="Times New Roman" transform="translate(0 2.143)"><tspan y="484.415" x="375.831">(OSS-CAH)</tspan></text></g><g><text y="512.833" x="69.582" style="text-align:start;line-height:100%" font-size="22" font-weight="400" font-family="Times New Roman" transform="translate(0 2.735)"><tspan y="512.833" x="69.582" font-size="16">P</tspan></text><g transform="translate(-.565 1.749)"><use xlink:href="#b" transform="translate(-.096 427.768)" width="550" height="1125"/><use xlink:href="#b" transform="translate(53.33 427.768)" width="550" height="1125"/><use xlink:href="#a" transform="translate(.18 427.768)" width="550" height="1125"/><use xlink:href="#a" transform="translate(20.724 427.768)" width="550" height="1125"/></g><text y="511.122" x="260.096" style="text-align:start;line-height:100%" font-size="22" font-weight="400" font-family="Times New Roman" transform="translate(0 2.735)"><tspan y="511.122" x="260.096" font-size="16">Papa</tspan></text><text y="511.379" x="375.831" style="marker:none;text-indent:0;text-align:start;line-height:100%;text-transform:none" overflow="visible" font-size="16" font-weight="400" color="#000" font-family="Times New Roman" transform="translate(0 2.735)"><tspan y="511.379" x="375.831">(PAH-PAH)</tspan></text></g><g><text y="538.34" x="68.129" style="text-align:start;line-height:100%" font-size="22" font-weight="400" font-family="Times New Roman" transform="translate(0 3.34)"><tspan y="538.34" x="68.129" font-size="16">Q</tspan></text><g transform="translate(-.434 2.055)"><use xlink:href="#b" transform="translate(41.102 455.018)" width="550" height="1125"/><use xlink:href="#a" transform="translate(41.497 455.018)" width="550" height="1125"/><use xlink:href="#a" transform="translate(8.378 455.018)" width="550" height="1125"/><use xlink:href="#a" transform="translate(-12.287 455.018)" width="550" height="1125"/></g><text y="538.476" x="259.799" style="text-align:start;line-height:100%" font-size="22" font-weight="400" font-family="Times New Roman" transform="translate(0 3.34)"><tspan y="538.476" x="259.799" font-size="16">Quebec</tspan></text><text y="538.332" x="375.831" style="marker:none;text-indent:0;text-align:start;line-height:100%;text-transform:none" overflow="visible" font-size="16" font-weight="400" color="#000" font-family="Times New Roman" transform="translate(0 3.34)"><tspan y="538.332" x="375.831">(KEH-BECK)</tspan></text></g><g><text y="568.885" x="68.34" style="text-align:start;line-height:100%" font-size="22" font-weight="400" font-family="Times New Roman" transform="translate(0 1.796)"><tspan y="568.885" x="68.34" font-size="16">R</tspan></text><g transform="translate(.87 2.72)"><use xlink:href="#b" transform="translate(-1.53 481.91)" width="550" height="1125"/><use xlink:href="#a" transform="translate(-1.022 481.91)" width="550" height="1125"/><use xlink:href="#b" transform="translate(31.816 481.91)" width="550" height="1125"/></g><text y="568.776" x="260.088" style="text-align:start;line-height:100%" font-size="22" font-weight="400" font-family="Times New Roman" transform="translate(0 1.796)"><tspan y="568.776" x="260.088" font-size="16">Romeo</tspan></text><text y="567.432" x="375.831" style="marker:none;text-indent:0;text-align:start;line-height:100%;text-transform:none" overflow="visible" font-size="16" font-weight="400" color="#000" font-family="Times New Roman" transform="translate(0 1.796)"><tspan y="567.432" x="375.831">(ROW-ME-OH)</tspan></text></g><g><text y="595.608" x="69.363" style="text-align:start;line-height:100%" font-size="22" font-weight="400" font-family="Times New Roman" transform="translate(0 2.63)"><tspan y="595.608" x="69.363" font-size="16">S</tspan></text><g transform="translate(-.207 2.487)"><use xlink:href="#b" transform="translate(-.455 509.699)" width="550" height="1125"/><use xlink:href="#b" transform="translate(11.736 509.699)" width="550" height="1125"/><use xlink:href="#b" transform="translate(23.927 509.699)" width="550" height="1125"/></g><text y="595.745" x="259.361" style="text-align:start;line-height:100%" font-size="22" font-weight="400" font-family="Times New Roman" transform="translate(0 2.63)"><tspan y="595.745" x="259.361" font-size="16">Sierra</tspan></text><text y="594.155" x="375.831" style="marker:none;text-indent:0;text-align:start;line-height:100%;text-transform:none" overflow="visible" font-size="16" font-weight="400" color="#000" font-family="Times New Roman" transform="translate(0 2.63)"><tspan y="594.155" x="375.831">(SEE-AIR-RAH)</tspan></text></g><g transform="translate(0 2.638)"><text y="623.157" x="68.953" style="text-align:start;line-height:100%" font-size="22" font-weight="400" font-family="Times New Roman"><tspan y="623.157" x="68.953" font-size="16">T</tspan></text><use height="1125" width="550" transform="translate(-12.721 537.105)" xlink:href="#a"/><text y="621.431" x="259.877" style="text-align:start;line-height:100%" font-size="22" font-weight="400" font-family="Times New Roman"><tspan y="621.431" x="259.877" font-size="16">Tango</tspan></text><text y="621.704" x="375.831" style="marker:none;text-indent:0;text-align:start;line-height:100%;text-transform:none" overflow="visible" font-size="16" font-weight="400" color="#000" font-family="Times New Roman"><tspan y="621.704" x="375.831">(TANG-GO)</tspan></text></g><g><text y="652.37" x="68.148" style="text-align:start;line-height:100%" font-size="22" font-weight="400" font-family="Times New Roman" transform="translate(0 -.987)"><tspan y="652.37" x="68.148" font-size="16">U</tspan></text><g transform="translate(.51 -.332)"><use xlink:href="#b" transform="translate(11.133 563.662)" width="550" height="1125"/><use xlink:href="#a" transform="translate(11.378 563.662)" width="550" height="1125"/><use xlink:href="#b" transform="translate(-1.172 563.662)" width="550" height="1125"/></g><text y="652.885" x="260.275" style="text-align:start;line-height:100%" font-size="22" font-weight="400" font-family="Times New Roman" transform="translate(0 -.987)"><tspan y="652.885" x="260.275" font-size="16">Uniform</tspan></text><text y="652.885" x="375.948" style="marker:none;text-indent:0;text-align:start;line-height:100%;text-transform:none" overflow="visible" font-size="16" font-weight="400" color="#000" font-family="Times New Roman" transform="translate(0 -.987)"><tspan y="652.885" x="375.948">(YOU-NEE-FORM)</tspan><tspan y="668.885" x="375.948">or</tspan><tspan y="684.885" x="375.948">(OO-NEE-FORM)</tspan></text></g><g><text y="716.7" x="68.133" style="text-align:start;line-height:100%" font-size="22" font-weight="400" font-family="Times New Roman" transform="translate(0 -3.913)"><tspan y="716.7" x="68.133" font-size="16">V</tspan></text><g transform="translate(-.207 -3.32)"><use xlink:href="#b" transform="translate(23.601 630.175)" width="550" height="1125"/><use xlink:href="#a" transform="translate(23.569 630.175)" width="550" height="1125"/><use xlink:href="#b" transform="translate(-.455 630.175)" width="550" height="1125"/><use xlink:href="#b" transform="translate(11.573 630.175)" width="550" height="1125"/></g><text y="716.958" x="260.221" style="text-align:start;line-height:100%" font-size="22" font-weight="400" font-family="Times New Roman" transform="translate(0 -3.913)"><tspan y="716.958" x="260.221" font-size="16">Victor</tspan></text><text y="715.368" x="375.831" style="marker:none;text-indent:0;text-align:start;line-height:100%;text-transform:none" overflow="visible" font-size="16" font-weight="400" color="#000" font-family="Times New Roman" transform="translate(0 -3.913)"><tspan y="715.368" x="375.831">(VIK-TAH)</tspan></text></g><g><text y="744.294" x="66.289" style="text-align:start;line-height:100%" font-size="22" font-weight="400" font-family="Times New Roman" transform="translate(0 -3.935)"><tspan y="744.294" x="66.289" font-size="16">W</tspan></text><g transform="translate(-.207 -3.177)"><use xlink:href="#b" transform="translate(-.455 657.605)" width="550" height="1125"/><use xlink:href="#a" transform="translate(2.14 657.605)" width="550" height="1125"/><use xlink:href="#a" transform="translate(25.003 657.605)" width="550" height="1125"/></g><text y="742.947" x="260.15" style="text-align:start;line-height:100%" font-size="22" font-weight="400" font-family="Times New Roman" transform="translate(0 -3.935)"><tspan y="742.947" x="260.15" font-size="16">Whiskey</tspan></text><text y="742.962" x="375.831" style="marker:none;text-indent:0;text-align:start;line-height:100%;text-transform:none" overflow="visible" font-size="16" font-weight="400" color="#000" font-family="Times New Roman" transform="translate(0 -3.935)"><tspan y="742.962" x="375.831">(WISS-KEY)</tspan></text></g><g><text y="771.097" x="68.141" style="text-align:start;line-height:100%" font-size="22" font-weight="400" font-family="Times New Roman" transform="translate(0 -3.045)"><tspan y="771.097" x="68.141" font-size="16">X</tspan></text><g transform="translate(.152 -2.855)"><use xlink:href="#b" transform="translate(31.955 684.856)" width="550" height="1125"/><use xlink:href="#a" transform="translate(32.174 684.856)" width="550" height="1125"/><use xlink:href="#b" transform="matrix(-1 0 0 1 306.086 684.856)" width="550" height="1125"/><use xlink:href="#a" transform="matrix(-1 0 0 1 305.867 684.856)" width="550" height="1125"/></g><text y="769.371" x="260.244" style="text-align:start;line-height:100%" font-size="22" font-weight="400" font-family="Times New Roman" transform="translate(0 -3.045)"><tspan y="769.371" x="260.244" font-size="16">Xray</tspan></text><text y="769.644" x="375.831" style="marker:none;text-indent:0;text-align:start;line-height:100%;text-transform:none" overflow="visible" font-size="16" font-weight="400" color="#000" font-family="Times New Roman" transform="translate(0 -3.045)"><tspan y="769.644" x="375.831">(ECKS-RAY)</tspan></text></g><g><text y="798.424" x="68.148" style="text-align:start;line-height:100%" font-size="22" font-weight="400" font-family="Times New Roman" transform="translate(0 -2.814)"><tspan y="798.424" x="68.148" font-size="16">Y</tspan></text><g transform="translate(-.434 -2.19)"><use xlink:href="#b" transform="translate(20.332 711.748)" width="550" height="1125"/><use xlink:href="#a" transform="translate(20.62 711.748)" width="550" height="1125"/><use xlink:href="#a" transform="translate(-12.287 711.748)" width="550" height="1125"/><use xlink:href="#a" transform="translate(41.18 711.748)" width="550" height="1125"/></g><text y="798.572" x="260.213" style="text-align:start;line-height:100%" font-size="22" font-weight="400" font-family="Times New Roman" transform="translate(0 -2.814)"><tspan y="798.572" x="260.213" font-size="16">Yankee</tspan></text><text y="796.971" x="375.831" style="marker:none;text-indent:0;text-align:start;line-height:100%;text-transform:none" overflow="visible" font-size="16" font-weight="400" color="#000" font-family="Times New Roman" transform="translate(0 -2.814)"><tspan y="796.971" x="375.831">(YANG-KEY)</tspan></text></g><g><text y="825.52" x="69.117" style="text-align:start;line-height:100%" font-size="22" font-weight="400" font-family="Times New Roman" transform="translate(0 -2.354)"><tspan y="825.52" x="69.117" font-size="16">Z</tspan></text><g transform="translate(.777 -2.125)"><use xlink:href="#b" transform="translate(40.01 739.24)" width="550" height="1125"/><use xlink:href="#a" transform="translate(7.226 739.24)" width="550" height="1125"/><use xlink:href="#b" transform="translate(52.523 739.24)" width="550" height="1125"/><use xlink:href="#a" transform="translate(-13.498 739.24)" width="550" height="1125"/></g><text y="825.669" x="260.158" style="text-align:start;line-height:100%" font-size="22" font-weight="400" font-family="Times New Roman" transform="translate(0 -2.354)"><tspan y="825.669" x="260.158" font-size="16">Zulu</tspan></text><text y="824.067" x="375.831" style="marker:none;text-indent:0;text-align:start;line-height:100%;text-transform:none" overflow="visible" font-size="16" font-weight="400" color="#000" font-family="Times New Roman" transform="translate(0 -2.354)"><tspan y="824.067" x="375.831">(ZOO-LOO)</tspan></text></g><g><text y="852.726" x="69.922" style="text-align:start;line-height:100%" font-size="22" font-weight="400" font-family="Times New Roman" transform="translate(0 -1.894)"><tspan y="852.726" x="69.922" font-size="16">1</tspan></text><g transform="translate(.33 -1.471)"><use xlink:href="#b" transform="translate(-.992 766.142)" width="550" height="1125"/><use xlink:href="#a" transform="translate(-.562 766.142)" width="550" height="1125"/><use xlink:href="#a" transform="translate(20.138 766.142)" width="550" height="1125"/><use xlink:href="#a" transform="translate(40.839 766.142)" width="550" height="1125"/><use xlink:href="#a" transform="translate(61.539 766.142)" width="550" height="1125"/></g><text y="852.617" x="259.799" style="text-align:start;line-height:100%" font-size="22" font-weight="400" font-family="Times New Roman" transform="translate(0 -1.894)"><tspan y="852.617" x="259.799" font-size="16">One</tspan></text><text y="851.164" x="375.831" style="marker:none;text-indent:0;text-align:start;line-height:100%;text-transform:none" overflow="visible" font-size="16" font-weight="400" color="#000" font-family="Times New Roman" transform="translate(0 -1.894)"><tspan y="851.164" x="375.831">(WUN)</tspan></text></g><g><text y="879.932" x="70.043" style="text-align:start;line-height:100%" font-size="22" font-weight="400" font-family="Times New Roman" transform="translate(0 -1.543)"><tspan y="879.932" x="70.043" font-size="16">2</tspan></text><g transform="translate(.621 -1.544)"><use xlink:href="#b" transform="translate(11.079 793.772)" width="550" height="1125"/><use xlink:href="#a" transform="translate(11.38 793.772)" width="550" height="1125"/><use xlink:href="#b" transform="translate(-1.283 793.772)" width="550" height="1125"/><use xlink:href="#a" transform="translate(31.951 793.772)" width="550" height="1125"/><use xlink:href="#a" transform="translate(52.523 793.772)" width="550" height="1125"/></g><text y="879.713" x="259.877" style="text-align:start;line-height:100%" font-size="22" font-weight="400" font-family="Times New Roman" transform="translate(0 -1.543)"><tspan y="879.713" x="259.877" font-size="16">Two</tspan></text><text y="878.37" x="375.831" style="marker:none;text-indent:0;text-align:start;line-height:100%;text-transform:none" overflow="visible" font-size="16" font-weight="400" color="#000" font-family="Times New Roman" transform="translate(0 -1.543)"><tspan y="878.37" x="375.831">(TOO)</tspan></text></g><g><text y="907.274" x="70.222" style="text-align:start;line-height:100%" font-size="22" font-weight="400" font-family="Times New Roman" transform="translate(0 -1.422)"><tspan y="907.274" x="70.222" font-size="16">3</tspan></text><g transform="translate(.912 -1.181)"><use xlink:href="#b" transform="translate(23.037 820.966)" width="550" height="1125"/><use xlink:href="#a" transform="translate(23.282 820.966)" width="550" height="1125"/><use xlink:href="#a" transform="translate(43.797 820.966)" width="550" height="1125"/><use xlink:href="#b" transform="translate(10.732 820.966)" width="550" height="1125"/><use xlink:href="#b" transform="translate(-1.573 820.966)" width="550" height="1125"/></g><text y="907.407" x="259.877" style="text-align:start;line-height:100%" font-size="22" font-weight="400" font-family="Times New Roman" transform="translate(0 -1.422)"><tspan y="907.407" x="259.877" font-size="16">Three</tspan></text><text y="905.805" x="375.831" style="marker:none;text-indent:0;text-align:start;line-height:100%;text-transform:none" overflow="visible" font-size="16" font-weight="400" color="#000" font-family="Times New Roman" transform="translate(0 -1.422)"><tspan y="905.805" x="375.831">(TREE)</tspan></text></g><g><text y="934.437" x="70.035" style="text-align:start;line-height:100%" font-size="22" font-weight="400" font-family="Times New Roman" transform="translate(0 -.935)"><tspan y="934.437" x="70.035" font-size="16">4</tspan></text><g transform="translate(.621 -.527)"><use xlink:href="#b" transform="translate(34.81 847.868)" width="550" height="1125"/><use xlink:href="#a" transform="translate(34.782 847.868)" width="550" height="1125"/><use xlink:href="#b" transform="translate(22.78 847.868)" width="550" height="1125"/><use xlink:href="#b" transform="translate(10.748 847.868)" width="550" height="1125"/><use xlink:href="#b" transform="translate(-1.283 847.868)" width="550" height="1125"/></g><text y="934.219" x="260.103" style="text-align:start;line-height:100%" font-size="22" font-weight="400" font-family="Times New Roman" transform="translate(0 -.935)"><tspan y="934.219" x="260.103" font-size="16">Four</tspan></text><text y="932.875" x="375.831" style="marker:none;text-indent:0;text-align:start;line-height:100%;text-transform:none" overflow="visible" font-size="16" font-weight="400" color="#000" font-family="Times New Roman" transform="translate(0 -.935)"><tspan y="932.875" x="375.831">(FOW-ER)</tspan></text></g><g><text y="961.67" x="70.027" style="text-align:start;line-height:100%" font-size="22" font-weight="400" font-family="Times New Roman" transform="translate(0 -.814)"><tspan y="961.67" x="70.027" font-size="16">5</tspan></text><g transform="translate(.621 -.454)"><use xlink:href="#b" transform="translate(46.124 875.352)" width="550" height="1125"/><use xlink:href="#b" transform="translate(34.273 875.352)" width="550" height="1125"/><use xlink:href="#b" transform="translate(22.42 875.352)" width="550" height="1125"/><use xlink:href="#b" transform="translate(10.57 875.352)" width="550" height="1125"/><use xlink:href="#b" transform="translate(-1.283 875.352)" width="550" height="1125"/></g><text y="961.912" x="260.103" style="text-align:start;line-height:100%" font-size="22" font-weight="400" font-family="Times New Roman" transform="translate(0 -.814)"><tspan y="961.912" x="260.103" font-size="16">Five</tspan></text><text y="960.311" x="375.831" style="marker:none;text-indent:0;text-align:start;line-height:100%;text-transform:none" overflow="visible" font-size="16" font-weight="400" color="#000" font-family="Times New Roman" transform="translate(0 -.814)"><tspan y="960.311" x="375.831">(FIFE)</tspan></text></g><g><text y="988.97" x="69.847" style="text-align:start;line-height:100%" font-size="22" font-weight="400" font-family="Times New Roman" transform="translate(0 -.448)"><tspan y="988.97" x="69.847" font-size="16">6</tspan></text><g transform="translate(.195 -.527)"><use xlink:href="#a" transform="translate(-12.916 902.982)" width="550" height="1125"/><use xlink:href="#b" transform="translate(19.3 902.982)" width="550" height="1125"/><use xlink:href="#b" transform="translate(31.247 902.982)" width="550" height="1125"/><use xlink:href="#b" transform="translate(43.194 902.982)" width="550" height="1125"/><use xlink:href="#b" transform="translate(55.14 902.982)" width="550" height="1125"/></g><text y="989.091" x="259.361" style="text-align:start;line-height:100%" font-size="22" font-weight="400" font-family="Times New Roman" transform="translate(0 -.448)"><tspan y="989.091" x="259.361" font-size="16">Six</tspan></text><text y="987.501" x="375.831" style="marker:none;text-indent:0;text-align:start;line-height:100%;text-transform:none" overflow="visible" font-size="16" font-weight="400" color="#000" font-family="Times New Roman" transform="translate(0 -.448)"><tspan y="987.501" x="375.831">(SIX)</tspan></text></g><g><text y="1016.14" x="69.941" style="text-align:start;line-height:100%" font-size="22" font-weight="400" font-family="Times New Roman" transform="translate(0 -.19)"><tspan y="1016.14" x="69.941" font-size="16">7</tspan></text><g transform="translate(.195 -.31)"><use xlink:href="#b" transform="translate(39.57 930.321)" width="550" height="1125"/><use xlink:href="#a" transform="translate(7.297 930.321)" width="550" height="1125"/><use xlink:href="#b" transform="translate(51.572 930.321)" width="550" height="1125"/><use xlink:href="#a" transform="translate(-12.916 930.321)" width="550" height="1125"/><use xlink:href="#b" transform="translate(63.575 930.321)" width="550" height="1125"/></g><text y="1016.25" x="259.361" style="text-align:start;line-height:100%" font-size="22" font-weight="400" font-family="Times New Roman" transform="translate(0 -.19)"><tspan y="1016.25" x="259.361" font-size="16">Seven</tspan></text><text y="1014.8" x="375.831" style="marker:none;text-indent:0;text-align:start;line-height:100%;text-transform:none" overflow="visible" font-size="16" font-weight="400" color="#000" font-family="Times New Roman" transform="translate(0 -.19)"><tspan y="1014.8" x="375.831">(SEV-EN)</tspan></text></g><g><text y="1043.32" x="69.859" style="text-align:start;line-height:100%" font-size="22" font-weight="400" font-family="Times New Roman" transform="translate(0 .327)"><tspan y="1043.32" x="69.859" font-size="16">8</tspan></text><g transform="translate(1.068 .215)"><use xlink:href="#a" transform="translate(6.916 957.369)" width="550" height="1125"/><use xlink:href="#b" transform="translate(60.386 957.369)" width="550" height="1125"/><use xlink:href="#a" transform="translate(27.622 957.369)" width="550" height="1125"/><use xlink:href="#a" transform="translate(-13.789 957.369)" width="550" height="1125"/><use xlink:href="#b" transform="translate(72.881 957.369)" width="550" height="1125"/></g><text y="1041.84" x="260.033" style="text-align:start;line-height:100%" font-size="22" font-weight="400" font-family="Times New Roman" transform="translate(0 .327)"><tspan y="1041.84" x="260.033" font-size="16">Eight</tspan></text><text y="1041.86" x="375.831" style="marker:none;text-indent:0;text-align:start;line-height:100%;text-transform:none" overflow="visible" font-size="16" font-weight="400" color="#000" font-family="Times New Roman" transform="translate(0 .327)"><tspan y="1041.86" x="375.831">(AIT)</tspan></text></g><g><text y="1071.22" x="69.91" style="text-align:start;line-height:100%" font-size="22" font-weight="400" font-family="Times New Roman" transform="translate(0 -.011)"><tspan y="1071.22" x="69.91" font-size="16">9</tspan></text><g transform="translate(.195 .012)"><use xlink:href="#b" transform="translate(81.316 985.144)" width="550" height="1125"/><use xlink:href="#a" transform="translate(48.713 985.144)" width="550" height="1125"/><use xlink:href="#a" transform="translate(7.627 985.144)" width="550" height="1125"/><use xlink:href="#a" transform="translate(28.17 985.144)" width="550" height="1125"/><use xlink:href="#a" transform="translate(-12.916 985.144)" width="550" height="1125"/></g><text y="1071.37" x="260.572" style="text-align:start;line-height:100%" font-size="22" font-weight="400" font-family="Times New Roman" transform="translate(0 -.011)"><tspan y="1071.37" x="260.572" font-size="16">Nine</tspan></text><text y="1069.77" x="375.831" style="marker:none;text-indent:0;text-align:start;line-height:100%;text-transform:none" overflow="visible" font-size="16" font-weight="400" color="#000" font-family="Times New Roman" transform="translate(0 -.011)"><tspan y="1069.77" x="375.831">(NIN-ER)</tspan></text></g><g><text y="1098.78" x="69.879" style="text-align:start;line-height:100%" font-size="22" font-weight="400" font-family="Times New Roman"><tspan y="1098.78" x="69.879" font-size="16">0</tspan></text><g transform="translate(.777 .06)"><use xlink:href="#a" transform="translate(7.37 1012.65)" width="550" height="1125"/><use xlink:href="#a" transform="translate(69.973 1012.65)" width="550" height="1125"/><use xlink:href="#a" transform="translate(49.105 1012.65)" width="550" height="1125"/><use xlink:href="#a" transform="translate(28.238 1012.65)" width="550" height="1125"/><use xlink:href="#a" transform="translate(-13.498 1012.65)" width="550" height="1125"/></g><text y="1098.66" x="260.158" style="text-align:start;line-height:100%" font-size="22" font-weight="400" font-family="Times New Roman"><tspan y="1098.66" x="260.158" font-size="16">Zero</tspan></text><text y="1097.31" x="375.831" style="marker:none;text-indent:0;text-align:start;line-height:100%;text-transform:none" overflow="visible" font-size="16" font-weight="400" color="#000" font-family="Times New Roman"><tspan y="1097.31" x="375.831">(ZEE-RO)</tspan></text></g></svg>